<?xml version="1.0" encoding="UTF-8" standalone="no"?>
<svg
   width="242.87999pt"
   height="54.959999pt"
   viewBox="0 0 242.87999 54.959999"
   version="1.1"
   id="svg6"
   xmlns="http://www.w3.org/2000/svg"
   xmlns:svg="http://www.w3.org/2000/svg">
  <defs
     id="defs10" />
  <path
     fill-rule="nonzero"
     fill="rgb(100%, 100%, 100%)"
     fill-opacity="1"
     d="M 20.863281 34.5 L 20.863281 24.75 L 21.996094 24.546875 L 22.632813 26.273438 L 21.585938 26.78125 L 9.902344 7.664063 L 14.238281 7.664063 L 24.742188 24.847656 L 21.078125 24.847656 L 31.582031 7.664063 L 35.730469 7.664063 L 24.046875 26.78125 L 23 26.273438 L 23.636719 24.546875 L 24.769531 24.75 L 24.769531 35.085938 L 20.863281 35.085938 Z M 22.035156 34.5 L 21.449219 34.5 L 21.449219 33.914063 L 24.183594 33.914063 L 24.183594 34.5 L 23.597656 34.5 L 23.597656 24.75 L 24.183594 24.75 L 24.734375 24.953125 L 24.097656 26.679688 L 23.546875 26.476563 L 23.046875 26.167969 L 34.183594 7.945313 L 34.683594 8.25 L 34.683594 8.835938 L 31.910156 8.835938 L 31.910156 8.25 L 32.410156 8.554688 L 22.621094 24.566406 L 22.121094 24.261719 L 22.121094 23.675781 L 23.699219 23.675781 L 23.699219 24.261719 L 23.199219 24.566406 L 13.410156 8.554688 L 13.910156 8.25 L 13.910156 8.835938 L 10.949219 8.835938 L 10.949219 8.25 L 11.449219 7.945313 L 22.585938 26.167969 L 22.085938 26.476563 L 21.535156 26.679688 L 20.898438 24.953125 L 21.449219 24.75 L 22.035156 24.75 Z M 21.449219 34.5 L 21.449219 24.75 L 22.085938 26.476563 L 10.949219 8.25 L 13.910156 8.25 L 23.699219 24.261719 L 22.121094 24.261719 L 31.910156 8.25 L 34.683594 8.25 L 23.546875 26.476563 L 24.183594 24.75 L 24.183594 34.5 Z M 70.121094 35.3125 C 68.074219 35.3125 66.171875 34.964844 64.414063 34.277344 C 62.652344 33.585938 61.125 32.605469 59.832031 31.335938 C 58.539063 30.070313 57.53125 28.59375 56.816406 26.910156 C 56.097656 25.226563 55.738281 23.378906 55.738281 21.375 C 55.738281 19.371094 56.097656 17.523438 56.816406 15.839844 C 57.53125 14.15625 58.539063 12.679688 59.832031 11.414063 C 61.125 10.144531 62.644531 9.164063 64.394531 8.472656 C 66.140625 7.785156 68.046875 7.4375 70.121094 7.4375 C 72.171875 7.4375 74.070313 7.785156 75.8125 8.472656 C 77.558594 9.164063 79.082031 10.136719 80.375 11.390625 C 81.667969 12.648438 82.675781 14.125 83.394531 15.820313 C 84.113281 17.519531 84.472656 19.371094 84.472656 21.375 C 84.472656 23.378906 84.113281 25.230469 83.394531 26.929688 C 82.675781 28.625 81.667969 30.101563 80.375 31.359375 C 79.082031 32.613281 77.558594 33.585938 75.8125 34.277344 C 74.070313 34.964844 72.171875 35.3125 70.121094 35.3125 Z M 70.121094 34.140625 C 72.023438 34.140625 73.777344 33.820313 75.382813 33.1875 C 76.984375 32.550781 78.375 31.664063 79.558594 30.515625 C 80.738281 29.371094 81.65625 28.023438 82.3125 26.472656 C 82.972656 24.917969 83.300781 23.222656 83.300781 21.375 C 83.300781 19.527344 82.972656 17.832031 82.3125 16.277344 C 81.65625 14.726563 80.738281 13.378906 79.558594 12.234375 C 78.375 11.085938 76.984375 10.199219 75.382813 9.5625 C 73.777344 8.929688 72.023438 8.609375 70.121094 8.609375 C 68.195313 8.609375 66.429688 8.929688 64.824219 9.5625 C 63.222656 10.195313 61.832031 11.09375 60.652344 12.25 C 59.46875 13.40625 58.550781 14.757813 57.894531 16.296875 C 57.238281 17.835938 56.910156 19.53125 56.910156 21.375 C 56.910156 23.21875 57.238281 24.914063 57.894531 26.453125 C 58.550781 27.992188 59.46875 29.34375 60.652344 30.5 C 61.832031 31.65625 63.230469 32.550781 64.84375 33.1875 C 66.460938 33.820313 68.222656 34.140625 70.121094 34.140625 Z M 70.121094 31.664063 C 71.621094 31.664063 73.003906 31.410156 74.273438 30.898438 C 75.535156 30.390625 76.632813 29.671875 77.566406 28.742188 C 78.496094 27.808594 79.222656 26.722656 79.746094 25.480469 C 80.265625 24.238281 80.523438 22.871094 80.523438 21.375 C 80.523438 19.878906 80.265625 18.511719 79.746094 17.269531 C 79.222656 16.027344 78.496094 14.941406 77.566406 14.007813 C 76.632813 13.078125 75.535156 12.359375 74.273438 11.851563 C 73.003906 11.339844 71.621094 11.085938 70.121094 11.085938 C 68.621094 11.085938 67.230469 11.339844 65.953125 11.851563 C 64.675781 12.359375 63.574219 13.078125 62.644531 14.007813 C 61.707031 14.941406 60.976563 16.03125 60.441406 17.273438 C 59.910156 18.511719 59.644531 19.878906 59.644531 21.375 C 59.644531 22.84375 59.910156 24.207031 60.441406 25.457031 C 60.976563 26.714844 61.710938 27.808594 62.644531 28.742188 C 63.574219 29.671875 64.675781 30.390625 65.953125 30.898438 C 67.230469 31.410156 68.621094 31.664063 70.121094 31.664063 Z M 70.121094 32.835938 C 68.472656 32.835938 66.9375 32.554688 65.519531 31.988281 C 64.09375 31.421875 62.859375 30.613281 61.816406 29.570313 C 60.773438 28.53125 59.957031 27.3125 59.363281 25.917969 C 58.769531 24.519531 58.472656 23.003906 58.472656 21.375 C 58.472656 19.71875 58.769531 18.199219 59.367188 16.8125 C 59.957031 15.429688 60.773438 14.21875 61.816406 13.179688 C 62.859375 12.136719 64.09375 11.328125 65.519531 10.761719 C 66.9375 10.195313 68.472656 9.914063 70.121094 9.914063 C 71.773438 9.914063 73.300781 10.195313 74.710938 10.761719 C 76.121094 11.328125 77.347656 12.136719 78.394531 13.179688 C 79.433594 14.222656 80.246094 15.433594 80.824219 16.816406 C 81.40625 18.203125 81.695313 19.722656 81.695313 21.375 C 81.695313 23.027344 81.40625 24.546875 80.824219 25.933594 C 80.246094 27.316406 79.433594 28.527344 78.394531 29.570313 C 77.347656 30.613281 76.121094 31.421875 74.710938 31.988281 C 73.300781 32.554688 71.773438 32.835938 70.121094 32.835938 Z M 70.121094 34.726563 C 68.148438 34.726563 66.316406 34.394531 64.628906 33.730469 C 62.941406 33.070313 61.480469 32.132813 60.242188 30.917969 C 59.003906 29.707031 58.042969 28.292969 57.355469 26.679688 C 56.667969 25.070313 56.324219 23.300781 56.324219 21.375 C 56.324219 19.449219 56.667969 17.679688 57.355469 16.070313 C 58.042969 14.457031 59.003906 13.042969 60.242188 11.832031 C 61.480469 10.617188 62.933594 9.679688 64.609375 9.019531 C 66.285156 8.355469 68.121094 8.023438 70.121094 8.023438 C 72.097656 8.023438 73.921875 8.355469 75.597656 9.019531 C 77.273438 9.679688 78.730469 10.613281 79.964844 11.8125 C 81.203125 13.011719 82.167969 14.425781 82.855469 16.050781 C 83.542969 17.675781 83.886719 19.449219 83.886719 21.375 C 83.886719 23.300781 83.542969 25.074219 82.855469 26.699219 C 82.167969 28.324219 81.203125 29.738281 79.964844 30.9375 C 78.730469 32.136719 77.273438 33.070313 75.597656 33.730469 C 73.921875 34.394531 72.097656 34.726563 70.121094 34.726563 Z M 70.121094 32.25 C 71.699219 32.25 73.152344 31.980469 74.492188 31.445313 C 75.828125 30.90625 76.992188 30.144531 77.980469 29.15625 C 78.964844 28.167969 79.734375 27.019531 80.285156 25.707031 C 80.835938 24.394531 81.109375 22.949219 81.109375 21.375 C 81.109375 19.800781 80.835938 18.355469 80.285156 17.042969 C 79.734375 15.730469 78.964844 14.582031 77.980469 13.59375 C 76.992188 12.605469 75.828125 11.84375 74.492188 11.304688 C 73.152344 10.769531 71.699219 10.5 70.121094 10.5 C 68.546875 10.5 67.085938 10.769531 65.734375 11.304688 C 64.386719 11.84375 63.214844 12.605469 62.230469 13.59375 C 61.242188 14.582031 60.464844 15.730469 59.902344 17.042969 C 59.339844 18.355469 59.058594 19.800781 59.058594 21.375 C 59.058594 22.925781 59.339844 24.363281 59.902344 25.6875 C 60.464844 27.011719 61.242188 28.167969 62.230469 29.15625 C 63.214844 30.144531 64.386719 30.90625 65.734375 31.445313 C 67.085938 31.980469 68.546875 32.25 70.121094 32.25 Z M 109.175781 34.5 L 109.175781 7.664063 L 112.332031 7.664063 L 131.375 31.636719 L 128.375 31.636719 L 128.375 7.664063 L 132.285156 7.664063 L 132.285156 35.085938 L 129.125 35.085938 L 110.121094 11.113281 L 113.121094 11.113281 L 113.121094 35.085938 L 109.175781 35.085938 Z M 110.347656 34.5 L 109.761719 34.5 L 109.761719 33.914063 L 112.535156 33.914063 L 112.535156 34.5 L 111.949219 34.5 L 111.949219 11.699219 L 112.535156 11.699219 L 112.535156 12.285156 L 111.335938 12.285156 L 111.335938 11.699219 L 111.792969 11.335938 L 129.871094 34.136719 L 129.410156 34.5 L 129.410156 33.914063 L 131.699219 33.914063 L 131.699219 34.5 L 131.113281 34.5 L 131.113281 8.25 L 131.699219 8.25 L 131.699219 8.835938 L 128.960938 8.835938 L 128.960938 8.25 L 129.546875 8.25 L 129.546875 31.050781 L 128.960938 31.050781 L 128.960938 30.464844 L 130.160156 30.464844 L 130.160156 31.050781 L 129.703125 31.414063 L 111.589844 8.613281 L 112.046875 8.25 L 112.046875 8.835938 L 109.761719 8.835938 L 109.761719 8.25 L 110.347656 8.25 Z M 109.761719 34.5 L 109.761719 8.25 L 112.046875 8.25 L 130.160156 31.050781 L 128.960938 31.050781 L 128.960938 8.25 L 131.699219 8.25 L 131.699219 34.5 L 129.410156 34.5 L 111.335938 11.699219 L 112.535156 11.699219 L 112.535156 34.5 Z M 159.3125 34.5 L 159.3125 7.664063 L 170.585938 7.664063 C 173.480469 7.664063 176.027344 8.242188 178.226563 9.398438 C 180.4375 10.5625 182.15625 12.179688 183.386719 14.25 C 184.617188 16.316406 185.234375 18.691406 185.234375 21.375 C 185.234375 24.058594 184.617188 26.433594 183.386719 28.5 C 182.15625 30.570313 180.4375 32.1875 178.226563 33.351563 C 176.027344 34.507813 173.480469 35.085938 170.585938 35.085938 L 159.3125 35.085938 Z M 160.484375 34.5 L 159.898438 34.5 L 159.898438 33.914063 L 170.585938 33.914063 C 173.289063 33.914063 175.652344 33.378906 177.679688 32.3125 C 179.695313 31.25 181.261719 29.78125 182.382813 27.902344 C 183.5 26.019531 184.0625 23.84375 184.0625 21.375 C 184.0625 18.90625 183.5 16.730469 182.382813 14.847656 C 181.261719 12.96875 179.695313 11.5 177.679688 10.4375 C 175.652344 9.371094 173.289063 8.835938 170.585938 8.835938 L 159.898438 8.835938 L 159.898438 8.25 L 160.484375 8.25 Z M 162.671875 31.515625 L 170.433594 31.515625 C 172.664063 31.515625 174.589844 31.082031 176.214844 30.214844 C 177.832031 29.351563 179.085938 28.164063 179.980469 26.644531 C 180.875 25.125 181.324219 23.367188 181.324219 21.375 C 181.324219 19.355469 180.875 17.59375 179.980469 16.085938 C 179.085938 14.582031 177.832031 13.398438 176.214844 12.535156 C 174.589844 11.667969 172.664063 11.234375 170.433594 11.234375 L 162.671875 11.234375 L 162.671875 10.648438 L 163.257813 10.648438 L 163.257813 32.101563 L 162.671875 32.101563 Z M 162.085938 32.6875 L 162.085938 10.0625 L 170.433594 10.0625 C 172.859375 10.0625 174.96875 10.542969 176.765625 11.5 C 178.574219 12.464844 179.984375 13.792969 180.988281 15.488281 C 181.992188 17.179688 182.496094 19.144531 182.496094 21.375 C 182.496094 23.582031 181.992188 25.535156 180.988281 27.242188 C 179.984375 28.949219 178.578125 30.285156 176.765625 31.25 C 174.96875 32.207031 172.859375 32.6875 170.433594 32.6875 Z M 159.898438 34.5 L 159.898438 8.25 L 170.585938 8.25 C 173.386719 8.25 175.839844 8.804688 177.953125 9.917969 C 180.066406 11.03125 181.710938 12.574219 182.886719 14.550781 C 184.058594 16.523438 184.648438 18.800781 184.648438 21.375 C 184.648438 23.949219 184.058594 26.226563 182.886719 28.199219 C 181.710938 30.175781 180.066406 31.71875 177.953125 32.832031 C 175.839844 33.945313 173.386719 34.5 170.585938 34.5 Z M 162.671875 32.101563 L 170.433594 32.101563 C 172.761719 32.101563 174.777344 31.644531 176.492188 30.730469 C 178.203125 29.820313 179.535156 28.554688 180.484375 26.945313 C 181.433594 25.332031 181.910156 23.476563 181.910156 21.375 C 181.910156 19.25 181.433594 17.386719 180.484375 15.789063 C 179.535156 14.1875 178.203125 12.929688 176.492188 12.019531 C 174.777344 11.105469 172.761719 10.648438 170.433594 10.648438 L 162.671875 10.648438 Z M 212.996094 19.402344 L 227.457031 19.402344 L 227.457031 22.9375 L 212.410156 22.9375 L 212.410156 19.402344 Z M 212.996094 20.574219 L 212.996094 19.988281 L 213.582031 19.988281 L 213.582031 22.351563 L 212.996094 22.351563 L 212.996094 21.765625 L 226.871094 21.765625 L 226.871094 22.351563 L 226.285156 22.351563 L 226.285156 19.988281 L 226.871094 19.988281 L 226.871094 20.574219 Z M 213.296875 31.515625 L 229.671875 31.515625 L 229.671875 35.085938 L 209.9375 35.085938 L 209.9375 7.664063 L 229.109375 7.664063 L 229.109375 11.234375 L 213.296875 11.234375 L 213.296875 10.648438 L 213.882813 10.648438 L 213.882813 32.101563 L 213.296875 32.101563 Z M 212.710938 32.6875 L 212.710938 10.0625 L 228.523438 10.0625 L 228.523438 10.648438 L 227.9375 10.648438 L 227.9375 8.25 L 228.523438 8.25 L 228.523438 8.835938 L 210.523438 8.835938 L 210.523438 8.25 L 211.109375 8.25 L 211.109375 34.5 L 210.523438 34.5 L 210.523438 33.914063 L 229.085938 33.914063 L 229.085938 34.5 L 228.5 34.5 L 228.5 32.101563 L 229.085938 32.101563 L 229.085938 32.6875 Z M 212.996094 19.988281 L 226.871094 19.988281 L 226.871094 22.351563 L 212.996094 22.351563 Z M 213.296875 32.101563 L 229.085938 32.101563 L 229.085938 34.5 L 210.523438 34.5 L 210.523438 8.25 L 228.523438 8.25 L 228.523438 10.648438 L 213.296875 10.648438 Z M 213.296875 32.101563 "
     id="path2" />
  <path
     fill="none"
     stroke-width="1"
     stroke-linecap="butt"
     stroke-linejoin="miter"
     stroke="rgb(100%, 100%, 100%)"
     stroke-opacity="1"
     stroke-miterlimit="10"
     d="M 1 58.000002 L 321.000013 58.000002 "
     transform="matrix(0.75, 0, 0, 0.75, 0.375, 0.375)"
     id="path4" />
</svg>
